<svg xmlns="http://www.w3.org/2000/svg" width="394" height="352" viewBox="0 0 394 352">
  <path d="M 222.00 316.50 L 152.00 247.50 L 151.50 301.00 L 123.50 301.00 L 123.00 202.50 L 85.00 240.50 L 66.50 222.00 L 135.50 152.00 L 82.00 151.50 L 82.00 123.50 L 180.50 123.00 L 142.50 85.00 L 161.00 66.50 L 231.00 135.50 L 231.50 82.00 L 259.50 82.00 L 260.00 180.50 L 298.00 142.50 L 316.50 161.00 L 247.50 231.00 L 301.00 231.50 L 301.00 259.50 L 202.50 260.00 L 240.50 298.00 L 222.00 316.50 Z M 189.50 245.00 L 190.00 231.50 L 228.00 231.50 L 219.50 221.00 L 245.50 195.00 L 245.00 193.50 L 231.50 193.00 L 231.50 155.00 L 221.00 163.50 L 195.00 137.50 L 193.50 138.00 L 193.00 151.50 L 155.00 151.50 L 163.50 162.00 L 137.50 188.00 L 138.00 189.50 L 151.50 190.00 L 151.50 228.00 L 162.00 219.50 L 188.00 245.50 L 189.50 245.00 Z" fill="#000" fill-rule="evenodd"/>
</svg>